<svg width="39" height="38" viewBox="0 0 39 38" fill="none" xmlns="http://www.w3.org/2000/svg">
<rect width="39" height="38" fill="#F3553F"/>
<path d="M7.8832 13.3126C8.96481 11.214 10.6241 9.4499 12.6756 8.21738C14.727 6.98486 17.0899 6.33251 19.5 6.33325C23.0035 6.33325 25.9467 7.58725 28.197 9.63292L24.4699 13.2657C23.1218 12.0105 21.4084 11.3708 19.5 11.3708C16.1135 11.3708 13.247 13.6001 12.2265 16.5933C11.9665 17.3533 11.8183 18.1639 11.8183 18.9999C11.8183 19.8359 11.9665 20.6466 12.2265 21.4066C13.2483 24.401 16.1135 26.6291 19.5 26.6291C21.2485 26.6291 22.737 26.1794 23.9018 25.4194C24.5771 24.9862 25.1552 24.4241 25.6012 23.767C26.0472 23.11 26.3518 22.3716 26.4966 21.5966H19.5V16.6971H31.7434C31.8968 17.5255 31.98 18.3894 31.98 19.2875C31.98 23.1457 30.563 26.3935 28.1034 28.5975C25.9532 30.5329 23.01 31.6666 19.5 31.6666C17.7926 31.6673 16.1018 31.3401 14.5243 30.7037C12.9468 30.0674 11.5134 29.1344 10.3061 27.9581C9.09879 26.7817 8.14124 25.3851 7.48818 23.848C6.83511 22.3109 6.49932 20.6635 6.5 18.9999C6.5 16.9555 7.0018 15.0226 7.8832 13.3126Z" fill="white"/>
</svg>
